<?xml version="1.0" encoding="utf-8"?>
<!-- Generator: Adobe Illustrator 24.2.3, SVG Export Plug-In . SVG Version: 6.00 Build 0)  -->
<svg version="1.1" id="Layer_1" xmlns="http://www.w3.org/2000/svg" xmlns:xlink="http://www.w3.org/1999/xlink" x="0px" y="0px"
	 viewBox="0 0 1000 1000" style="enable-background:new 0 0 1000 1000;" xml:space="preserve">
<style type="text/css">
	.st0{display:none;}
	.st1{display:inline;fill:#E3F2FD;}
	.st2{fill:#FFFFFF;}
	.st3{fill:#B1BFCA;}
	.st4{fill:#81D4FA;}
</style>
<g class="st0">
	<rect class="st1" width="1000" height="1000"/>
</g>
<g>
	<rect x="60" y="210" class="st2" width="880" height="580"/>
	<path class="st3" d="M930,220v560H70V220H930 M950,200H50v600h900V200L950,200z"/>
</g>
<g>
	<polygon class="st3" points="674.7,471.53 583.62,394.72 748,200 901,203 	"/>
</g>
<g>
	<polygon class="st3" points="553.7,525.35 577.75,403.8 669.46,481.14 	"/>
</g>
<path class="st4" d="M187.15,558.67c0,0,52.33-81.56,133.55-52.95c0,0,42.77,12.54,95.46,84.27s158.51,59.65,131.65-35.9
	c0,0,65.07,135.59-51.14,165.53c0,0-32.81,8.69-115.9-69.95C300.86,574.04,274.16,547.55,187.15,558.67z"/>
</svg>
