<svg width="611" height="611" viewBox="0 0 611 611" fill="none" xmlns="http://www.w3.org/2000/svg">
<circle cx="305.5" cy="305.5" r="305.5" fill="white"/>
<circle cx="305" cy="305" r="235" fill="#E4F1FD"/>
<path d="M192.099 393.052C161.771 295.568 95.8292 328.374 61.3777 355.78C184.469 355.898 146.465 453.854 177.696 498.184C208.927 542.514 324.786 505.486 291.738 408.006C299.185 438.664 230.01 514.906 192.099 393.052Z" fill="black"/>
<path d="M265.758 484.358C244.759 509.878 206.164 511.65 196.577 499.729C181.837 481.4 211.439 489.525 226.293 492.783C237.44 495.229 254.334 490.015 265.758 484.358Z" fill="white"/>
<rect x="402.025" y="368.295" width="81.7002" height="239.407" transform="rotate(-141.18 402.025 368.295)" fill="black"/>
<path d="M321.839 402.79L338.756 316.536L402.473 367.802L321.839 402.79Z" fill="black"/>
<path d="M320.571 403.447L331.059 352.76L336.973 374.06L352.096 371.771L346.097 385.458L359.088 386.855L320.571 403.447Z" fill="#B0BEC9"/>
</svg>
